<svg width="210" height="148" viewBox="0 0 210 148" xmlns="http://www.w3.org/2000/svg">
  <defs>
    <filter id="roughPencil" x="-12%" y="-18%" width="124%" height="136%">
      <feTurbulence type="fractalNoise" baseFrequency="0.9" numOctaves="3" seed="14" result="noise"></feTurbulence>
      <feDisplacementMap in="SourceGraphic" in2="noise" scale="1.45" xChannelSelector="R" yChannelSelector="G"></feDisplacementMap>
    </filter>

    <mask id="pencilGrain">
      <rect width="210" height="148" fill="white"></rect>
      <g stroke="black" stroke-linecap="round" opacity="0.32">
        <path d="M17 93 C35 119, 94 121, 147 117" stroke-width="2" stroke-dasharray="9 12"></path>
        <path d="M10 82 C19 48, 67 16, 117 11" stroke-width="2" stroke-dasharray="7 10"></path>
        <path d="M127 10 C170 9, 204 24, 202 52" stroke-width="2" stroke-dasharray="8 13"></path>
        <path d="M200 59 C192 86, 166 113, 132 144" stroke-width="2" stroke-dasharray="7 11"></path>
      </g>
    </mask>
  </defs>

  <g fill="none" stroke-linecap="round" stroke-linejoin="round" filter="url(#roughPencil)" mask="url(#pencilGrain)">
    <path d="M149 118
         C111 116, 54 122, 22 106
         C-4 93, 7 61, 37 38
         C69 13, 121 4, 161 11
         C193 17, 209 35, 202 59
         C194 89, 164 118, 132 143" stroke="#e00000" stroke-width="7.5"></path>

    <path d="M146 116
         C105 114, 50 120, 20 103
         C1 91, 8 65, 39 40
         C72 15, 123 7, 160 13
         C190 18, 204 36, 199 58
         C191 86, 162 116, 129 144" stroke="#c90000" stroke-width="3.1" opacity="0.72"></path>

    <path d="M151 121
         C112 118, 57 123, 24 108
         C4 99, 8 70, 35 43
         C66 16, 119 5, 158 10
         C190 14, 207 33, 203 55
         C199 82, 171 108, 137 139" stroke="#ff1b1b" stroke-width="2.4" opacity="0.55" stroke-dasharray="14 4 22 7"></path>

    <path d="M148 119
         C110 116, 58 122, 27 110
         C5 101, 7 74, 34 45
         C63 19, 115 8, 156 11
         C188 13, 205 32, 201 54
         C198 79, 170 111, 134 141" stroke="#a90000" stroke-width="1.7" opacity="0.5" stroke-dasharray="6 5"></path>
  </g>

  <path d="M132 143 C139 136, 147 129, 155 122 C147 132, 140 139, 132 143 Z" fill="#e00000" opacity="0.96"></path>
</svg>
